<svg width="30" height="94" viewBox="0 0 30 94" fill="none" xmlns="http://www.w3.org/2000/svg">
<path d="M24.0972 77.6792C19.3798 81.7992 17.1373 86.6662 15.3644 91.6146C14.5263 93.9568 10.8576 94.5494 9.22078 92.0668C8.71612 91.3001 8.70296 90.4435 8.40016 89.6403C6.42542 83.2624 3.62127 77.0024 0.641596 70.7818C0.621903 70.7402 0.615986 70.6966 0.624187 70.6535C0.632388 70.6104 0.654522 70.5689 0.689219 70.5317C0.723915 70.4944 0.770385 70.4622 0.825658 70.437C0.880931 70.4119 0.943807 70.3945 1.01023 70.3858C1.12562 70.3697 1.24603 70.3784 1.35304 70.4103C1.46005 70.4423 1.54773 70.4958 1.60264 70.5627C3.35798 72.6157 10.4012 79.6676 9.99313 84.5851C11.1429 70.7621 9.2866 58.9218 9.57623 46.1463C9.46214 30.8348 8.72197 15.5355 7.35574 0.248299C7.34961 0.187798 7.38057 0.128159 7.44201 0.082016C7.50346 0.035881 7.59056 0.00686646 7.68486 0.00115204C7.7667 -0.00444031 7.84872 0.0106277 7.91347 0.0431519C7.97821 0.0756683 8.02059 0.12307 8.03156 0.175278C11.3535 15.3913 14.1752 30.6944 14.8379 46.0536C15.4259 59.6576 15.0617 70.2201 14.1401 82.0014C14.4824 77.6399 24.8959 74.1125 28.4724 72.8796C28.5894 72.8391 28.7245 72.8253 28.8554 72.8406C28.9863 72.856 29.1051 72.8995 29.1921 72.9639C29.3128 73.056 29.379 73.1723 29.379 73.2925C29.379 73.4127 29.3128 73.529 29.1921 73.6211C27.4192 74.9944 25.6463 76.3143 24.0972 77.6792Z" fill="black"/>
</svg>
