<svg width="119" height="131" viewBox="0 0 119 131" fill="none" xmlns="http://www.w3.org/2000/svg">
<path d="M66.6341 6.92811C67.4046 4.67199 70.5954 4.67199 71.3659 6.92811L81.3313 36.1107C81.5815 36.8432 82.1568 37.4185 82.8893 37.6687L112.072 47.6341C114.328 48.4046 114.328 51.5954 112.072 52.3659L82.8893 62.3313C82.1568 62.5815 81.5815 63.1568 81.3313 63.8893L71.3659 93.0719C70.5954 95.328 67.4046 95.328 66.6341 93.0719L56.6687 63.8893C56.4185 63.1568 55.8432 62.5815 55.1107 62.3313L25.9281 52.3659C23.672 51.5954 23.672 48.4046 25.9281 47.6341L55.1107 37.6687C55.8432 37.4185 56.4185 36.8432 56.6687 36.1107L66.6341 6.92811Z" fill="#0FD46C"/>
<path d="M24.161 85.3137C25.0855 82.6064 28.9145 82.6064 29.839 85.3137L33.3972 95.7333C33.6973 96.6123 34.3877 97.3027 35.2667 97.6028L45.6863 101.161C48.3936 102.085 48.3936 105.915 45.6863 106.839L35.2667 110.397C34.3877 110.697 33.6973 111.388 33.3972 112.267L29.839 122.686C28.9145 125.394 25.0855 125.394 24.161 122.686L20.6028 112.267C20.3027 111.388 19.6123 110.697 18.7333 110.397L8.31373 106.839C5.60638 105.915 5.60639 102.085 8.31373 101.161L18.7333 97.6028C19.6123 97.3027 20.3027 96.6123 20.6028 95.7333L24.161 85.3137Z" fill="#0D333F"/>
</svg>
